<svg width="28" height="27" viewBox="0 0 28 27" fill="none" xmlns="http://www.w3.org/2000/svg">
<path d="M23.8 5.29413H17.2667V4.76472C17.2639 2.13445 15.3852 0.00310203 13.0667 0H4.2C1.88148 0.00310203 0.00273437 2.13445 0 4.76472V11.1177C0.00273437 13.7479 1.88148 15.8793 4.2 15.8824H4.66667V20.1177C4.66667 20.3317 4.78037 20.5248 4.95469 20.6068C5.129 20.6887 5.32975 20.6432 5.46328 20.492L9.52656 15.8824H10.7333V16.4118C10.7361 19.0421 12.6148 21.1734 14.9333 21.1765H17.5401L22.5367 26.845C22.6702 26.9962 22.871 27.0417 23.0453 26.9597C23.2196 26.8778 23.3333 26.6847 23.3333 26.4706V21.1765H23.8C26.1185 21.1734 27.9973 19.0421 28 16.4118V10.0588C27.9973 7.42858 26.1185 5.29723 23.8 5.29413ZM9.33333 14.8236C9.2096 14.8236 9.09089 14.8794 9.00339 14.9787L5.6 18.8397V15.353C5.6 15.0606 5.39105 14.8236 5.13333 14.8236H4.2C2.39668 14.8212 0.935384 13.1635 0.933333 11.1177V4.76472C0.935384 2.71893 2.39668 1.06115 4.2 1.05883H13.0667C14.87 1.06115 16.3313 2.71893 16.3333 4.76472V5.29413H14.9333C12.6148 5.29723 10.7361 7.42858 10.7333 10.0588V14.8236H9.33333ZM27.0667 16.4118C27.0646 18.4576 25.6033 20.1154 23.8 20.1177H22.8667C22.609 20.1177 22.4 20.3547 22.4 20.6471V25.1926L18.0633 20.2728C17.9758 20.1735 17.8571 20.1177 17.7333 20.1177H14.9333C13.13 20.1154 11.6687 18.4576 11.6667 16.4118V10.0588C11.6687 8.01306 13.13 6.35528 14.9333 6.35295H23.8C25.6033 6.35528 27.0646 8.01306 27.0667 10.0588V16.4118Z" fill="white"/>
<path d="M24.2447 9.71997H13.6377C13.383 9.71997 13.1765 9.96176 13.1765 10.26C13.1765 10.5582 13.383 10.8 13.6377 10.8H24.2447C24.4994 10.8 24.7059 10.5582 24.7059 10.26C24.7059 9.96176 24.4994 9.71997 24.2447 9.71997Z" fill="white"/>
<path d="M24.2447 12.96H13.6377C13.383 12.96 13.1765 13.2017 13.1765 13.5C13.1765 13.7982 13.383 14.04 13.6377 14.04H24.2447C24.4994 14.04 24.7059 13.7982 24.7059 13.5C24.7059 13.2017 24.4994 12.96 24.2447 12.96Z" fill="white"/>
<path d="M24.2447 16.2H13.6377C13.383 16.2 13.1765 16.4417 13.1765 16.74C13.1765 17.0382 13.383 17.28 13.6377 17.28H24.2447C24.4994 17.28 24.7059 17.0382 24.7059 16.74C24.7059 16.4417 24.4994 16.2 24.2447 16.2Z" fill="white"/>
<path d="M2.93608 5.39995H12.711C12.9681 5.39995 13.1765 5.15816 13.1765 4.85995C13.1765 4.56173 12.9681 4.31995 12.711 4.31995H2.93608C2.67903 4.31995 2.47061 4.56173 2.47061 4.85995C2.47061 5.15816 2.67903 5.39995 2.93608 5.39995Z" fill="white"/>
<path d="M10.2215 7.56006H2.95504C2.68752 7.56006 2.47061 7.80185 2.47061 8.10006C2.47061 8.39827 2.68752 8.64006 2.95504 8.64006H10.2215C10.489 8.64006 10.7059 8.39827 10.7059 8.10006C10.7059 7.80185 10.489 7.56006 10.2215 7.56006Z" fill="white"/>
<path d="M8.64708 10.8H2.88238C2.65498 10.8 2.47061 11.0418 2.47061 11.34C2.47061 11.6383 2.65498 11.88 2.88238 11.88H8.64708C8.87448 11.88 9.05885 11.6383 9.05885 11.34C9.05885 11.0418 8.87448 10.8 8.64708 10.8Z" fill="white"/>
</svg>
