<svg width="25" height="25" viewBox="0 0 25 25" fill="none" xmlns="http://www.w3.org/2000/svg">
<path d="M24.0234 16.7829V8.88667C24.0234 8.07895 23.3663 7.42183 22.5586 7.42183H19.1406V5.85938H22.5586C23.3663 5.85938 24.0234 5.20225 24.0234 4.39453V1.46484C24.0234 0.657129 23.3663 0 22.5586 0H14.7461C13.9384 0 13.2812 0.657129 13.2812 1.46484V4.39453C13.2812 5.20225 13.9384 5.85938 14.7461 5.85938H18.1641V7.42183H9.76562V3.41797C9.76562 3.24644 9.67564 3.0875 9.52856 2.99927L8.71475 2.51099C8.56011 2.41821 8.36694 2.41821 8.21231 2.51099L7.64971 2.84854L7.08716 2.51099C6.93252 2.41821 6.73936 2.41821 6.58472 2.51099L6.02212 2.84854L5.45957 2.51099C5.30493 2.41821 5.11177 2.41821 4.95713 2.51099L4.14331 2.99927C3.99624 3.0875 3.90625 3.24644 3.90625 3.41797V7.42188H2.44141C1.63369 7.42188 0.976562 8.079 0.976562 8.88672V16.7829C0.408154 16.9844 0 17.5274 0 18.1641V24.5117C0 24.7814 0.218604 25 0.488281 25H24.5117C24.7814 25 25 24.7814 25 24.5117V18.1641C25 17.5274 24.5918 16.9844 24.0234 16.7829ZM14.2578 4.39453V1.46484C14.2578 1.19561 14.4769 0.976562 14.7461 0.976562H22.5586C22.8278 0.976562 23.0469 1.19561 23.0469 1.46484V4.39453C23.0469 4.66377 22.8278 4.88281 22.5586 4.88281H14.7461C14.4769 4.88281 14.2578 4.66377 14.2578 4.39453ZM4.88281 3.69438L5.20835 3.49907L5.7709 3.83662C5.92554 3.92939 6.1187 3.92939 6.27334 3.83662L6.83594 3.49912L7.39849 3.83667C7.55312 3.92944 7.74629 3.92944 7.90093 3.83667L8.46352 3.49912L8.78906 3.69443V9.86328H4.88281V3.69438ZM2.44141 8.39839H3.90625V9.86323H3.41797C2.77012 9.88901 2.77061 10.8143 3.41797 10.8398H10.2539C10.9018 10.814 10.9013 9.88877 10.2539 9.86323H9.76562V8.39839H22.5586C22.8278 8.39839 23.0469 8.61743 23.0469 8.88667V16.6992H10.7422V13.7695C10.7422 12.9618 10.0851 12.3046 9.27734 12.3046H4.39453C3.58682 12.3046 2.92969 12.9618 2.92969 13.7695V16.6992H1.95312V8.88667C1.95312 8.61743 2.17212 8.39839 2.44141 8.39839ZM9.76562 16.6992H3.90625V13.7695C3.90625 13.5003 4.12529 13.2812 4.39453 13.2812H9.27734C9.54658 13.2812 9.76562 13.5003 9.76562 13.7695V16.6992ZM3.90625 17.6758H21.0938V21.582H3.90625V17.6758ZM24.0234 24.0234H0.976562V18.1641C0.976562 17.8948 1.19561 17.6758 1.46484 17.6758H2.92969V22.0703C2.92969 22.34 3.14829 22.5586 3.41797 22.5586H21.582C21.8517 22.5586 22.0703 22.34 22.0703 22.0703V17.6758H23.5352C23.8044 17.6758 24.0234 17.8948 24.0234 18.1641V24.0234Z" fill="white"/>
<path d="M15.4297 19.1406H9.5703C8.92245 19.1664 8.92294 20.0917 9.5703 20.1172H15.4297C16.0775 20.0914 16.077 19.1662 15.4297 19.1406Z" fill="white"/>
<path d="M12.6953 13.2812H13.916C14.5639 13.2555 14.5634 12.3302 13.916 12.3047H12.6953C12.0474 12.3305 12.048 13.2557 12.6953 13.2812Z" fill="white"/>
<path d="M12.6953 15.7226H13.916C14.5639 15.6968 14.5634 14.7716 13.916 14.746H12.6953C12.0474 14.7718 12.048 15.6971 12.6953 15.7226Z" fill="white"/>
<path d="M16.2842 10.8398H17.5049C18.1528 10.8141 18.1523 9.88882 17.5049 9.86328H16.2842C15.6363 9.88906 15.6368 10.8143 16.2842 10.8398Z" fill="white"/>
<path d="M16.2842 13.2812H17.5049C18.1528 13.2555 18.1523 12.3302 17.5049 12.3047H16.2842C15.6363 12.3305 15.6368 13.2557 16.2842 13.2812Z" fill="white"/>
<path d="M16.2842 15.7226H17.5049C18.1528 15.6968 18.1523 14.7716 17.5049 14.746H16.2842C15.6363 14.7718 15.6368 15.6971 16.2842 15.7226Z" fill="white"/>
<path d="M12.6953 10.8398H13.916C14.5639 10.8141 14.5634 9.88882 13.916 9.86328H12.6953C12.0474 9.88906 12.048 10.8143 12.6953 10.8398Z" fill="white"/>
<path d="M19.8731 10.8398H21.0938C21.7416 10.8141 21.7411 9.88882 21.0938 9.86328H19.8731C19.2252 9.88906 19.2257 10.8143 19.8731 10.8398Z" fill="white"/>
<path d="M19.8731 13.2812H21.0938C21.7416 13.2555 21.7411 12.3302 21.0938 12.3047H19.8731C19.2252 12.3305 19.2257 13.2557 19.8731 13.2812Z" fill="white"/>
<path d="M19.8731 15.7226H21.0938C21.7416 15.6968 21.7411 14.7716 21.0938 14.746H19.8731C19.2252 14.7718 19.2257 15.6971 19.8731 15.7226Z" fill="white"/>
<path d="M21.0938 2.44141H16.211C15.5631 2.46719 15.5636 3.39243 16.211 3.41797H21.0938C21.7416 3.39219 21.7411 2.46694 21.0938 2.44141Z" fill="white"/>
</svg>
