<svg width="25" height="25" viewBox="0 0 25 25" fill="none" xmlns="http://www.w3.org/2000/svg">
<path d="M23.7242 0H1.27446C0.571728 0 0 0.612361 0 1.36504V18.3469C0 19.1004 0.571728 19.7134 1.27446 19.7134H7.86714V21.7584H5.41563C4.58164 21.7584 3.90312 22.4852 3.90312 23.3785V24.477C3.90312 24.7658 4.12178 25 4.39141 25H20.6086C20.8783 25 21.0969 24.7658 21.0969 24.477V23.3785C21.0969 22.4852 20.4178 21.7584 19.5831 21.7584H17.1329V19.7134H23.7242C24.4276 19.7134 25 19.1004 25 18.3469V1.36504C25 0.612361 24.4276 0 23.7242 0ZM20.1203 23.3784V23.954H4.87969V23.3784C4.87969 23.0619 5.12012 22.8044 5.41563 22.8044H19.5831C19.8793 22.8044 20.1203 23.0619 20.1203 23.3784ZM16.1563 21.7584H8.84365V19.7134H16.1563V21.7584ZM23.7242 18.6675H1.27446C1.11299 18.6675 0.976562 18.5206 0.976562 18.3469V17.2955H10.3069C10.5766 17.2955 10.7952 17.0613 10.7952 16.7725C10.7952 16.4837 10.5766 16.2495 10.3069 16.2495H0.976562V1.36504C0.976562 1.19209 1.11299 1.04597 1.27446 1.04597H23.7242C23.8864 1.04597 24.0235 1.19209 24.0235 1.36504V16.2495H14.6917C14.4221 16.2495 14.2034 16.4837 14.2034 16.7725C14.2034 17.0613 14.4221 17.2955 14.6917 17.2955H24.0234V18.3469C24.0234 18.5206 23.8864 18.6675 23.7242 18.6675Z" fill="white"/>
<path d="M21.8778 10.6413H15.2606C14.9909 10.6413 14.7723 10.8755 14.7723 11.1643V14.4198C14.7723 14.7086 14.9909 14.9428 15.2606 14.9428H21.8778C22.1474 14.9428 22.3661 14.7086 22.3661 14.4198V11.1643C22.3661 10.8755 22.1475 10.6413 21.8778 10.6413ZM21.3896 13.8968H15.7488V11.6873H21.3895V13.8968H21.3896Z" fill="white"/>
<path d="M12.8245 7.03143H12.7551C12.6609 6.70425 12.5379 6.38706 12.3869 6.08258L12.4347 6.03112C12.6083 5.84688 12.7038 5.60076 12.7038 5.33812C12.7038 5.07548 12.6083 4.82931 12.4362 4.64658L11.5962 3.74679C11.4241 3.56097 11.1943 3.45862 10.9492 3.45862C10.9491 3.45862 10.9491 3.45862 10.9491 3.45862C10.7039 3.45862 10.4741 3.56092 10.3034 3.74516L10.2544 3.79767C9.97105 3.63696 9.67481 3.50532 9.36817 3.40402V3.3308C9.36817 2.79067 8.95851 2.35126 8.45499 2.35126H7.26466C6.76114 2.35126 6.35148 2.79067 6.35148 3.3308V3.40402C6.04483 3.50538 5.74855 3.63696 5.46525 3.79767L5.41622 3.74516C5.24361 3.56034 5.01427 3.45862 4.77013 3.45862C4.76949 3.45862 4.76891 3.45862 4.76827 3.45862C4.52408 3.45914 4.29518 3.56144 4.12526 3.74495L3.28204 4.64658C3.11017 4.83072 3.01549 5.07626 3.01549 5.33812C3.01549 5.59992 3.11017 5.84546 3.28204 6.02955L3.33195 6.08306C3.18151 6.38628 3.05861 6.70326 2.96437 7.03143H2.89518C2.39166 7.03143 1.98199 7.47021 1.98199 8.00952V9.28444C1.98199 9.82458 2.39166 10.264 2.89518 10.264H2.96437C3.05861 10.5919 3.18126 10.9086 3.33155 11.2116L3.28063 11.2659C2.92799 11.6468 2.92799 12.2664 3.28234 12.6492L4.12496 13.5502C4.47955 13.9299 5.05812 13.9306 5.41622 13.5502L5.4652 13.4977C5.74889 13.6586 6.04513 13.79 6.35148 13.8908V13.9647C6.35148 14.504 6.76114 14.9428 7.26466 14.9428H8.45499C8.95851 14.9428 9.36817 14.504 9.36817 13.9647V13.8908C9.67452 13.79 9.97081 13.6586 10.2545 13.4977L10.3034 13.5502C10.4754 13.7343 10.7046 13.8357 10.9491 13.8357C11.1936 13.8357 11.4229 13.7343 11.5947 13.5502L12.4362 12.6489C12.6087 12.4641 12.7038 12.2182 12.7038 11.9566C12.7038 11.695 12.6087 11.4492 12.4362 11.2644L12.3874 11.2121C12.5381 10.9079 12.661 10.591 12.7551 10.2641H12.8245C13.328 10.2641 13.7377 9.82463 13.7377 9.2845V8.00957C13.7378 7.47016 13.3281 7.03143 12.8245 7.03143ZM12.7612 9.21808H12.3802C12.1518 9.21808 11.954 9.38763 11.9038 9.62637C11.8007 10.1178 11.6191 10.5861 11.364 11.0182C11.242 11.2249 11.2701 11.4945 11.4315 11.6675L11.7015 11.9566L10.9491 12.7624L10.6798 12.474C10.5183 12.3012 10.2667 12.2711 10.0736 12.4018C9.67228 12.6735 9.23468 12.8675 8.77301 12.9784C8.55006 13.0319 8.39156 13.2439 8.39156 13.4887V13.8967H7.32799V13.4887C7.32799 13.2439 7.16954 13.032 6.94654 12.9784C6.48487 12.8675 6.04728 12.6735 5.64596 12.4018C5.45304 12.2712 5.20133 12.3011 5.03976 12.474L4.77042 12.7625L4.01681 11.9567L4.28727 11.6683C4.44962 11.4951 4.47775 11.2243 4.35494 11.0172C4.10099 10.589 3.91959 10.1211 3.81573 9.62632C3.76564 9.38763 3.56774 9.21802 3.33932 9.21802H2.95841V8.07729H3.33932C3.56774 8.07729 3.76559 7.90774 3.81573 7.669C3.91959 7.17426 4.10099 6.70629 4.35494 6.27813C4.47755 6.07134 4.44972 5.80111 4.28805 5.6279L4.01744 5.33796L4.77042 4.53278L5.03976 4.82125C5.20128 4.9942 5.45304 5.02412 5.64591 4.89353C6.04654 4.62226 6.48453 4.42771 6.94772 4.31511C7.17013 4.26109 7.32794 4.04933 7.32794 3.8051V3.39707H8.39151V3.8051C8.39151 4.04933 8.54933 4.26109 8.77174 4.31511C9.23492 4.42766 9.67291 4.62226 10.0735 4.89353C10.2664 5.02412 10.5182 4.9941 10.6797 4.82125L10.949 4.53283L11.7007 5.33807L11.4306 5.62874C11.2698 5.80174 11.2422 6.07076 11.3639 6.27708C11.619 6.70922 11.8005 7.1775 11.9037 7.66895C11.9538 7.90764 12.1517 8.07724 12.3801 8.07724H12.7611V9.21808H12.7612Z" fill="white"/>
<path d="M10.7027 7.09806C10.685 6.93975 10.5981 6.79457 10.4704 6.7122L8.11197 5.18969C7.9569 5.08959 7.76295 5.08965 7.60797 5.18959L5.24811 6.7121C5.10358 6.80534 5.01178 6.97934 5.01178 7.16008V10.1354C5.01178 10.3188 5.10148 10.4888 5.24811 10.5834L7.60797 12.1059C7.7609 12.2046 7.95895 12.2046 8.11197 12.1058L10.4704 10.5833C10.617 10.4887 10.7067 10.3187 10.7067 10.1354V7.16008C10.7066 7.13953 10.705 7.11851 10.7027 7.09806ZM7.85983 6.24816L9.27247 7.16008L7.85983 8.07201L6.4464 7.16008L7.85983 6.24816ZM5.98834 8.08566L7.37164 8.97813V10.7324L5.98834 9.83995V8.08566ZM9.73004 9.84006L8.34816 10.7322V8.97802L9.73004 8.08597V9.84006Z" fill="white"/>
<path d="M17.4529 4.48536H21.8778C22.1474 4.48536 22.3661 4.25117 22.3661 3.96238C22.3661 3.67358 22.1474 3.43939 21.8778 3.43939H17.4529C17.1833 3.43939 16.9646 3.67358 16.9646 3.96238C16.9646 4.25117 17.1832 4.48536 17.4529 4.48536Z" fill="white"/>
<path d="M15.2605 4.48536H15.2633C15.533 4.48536 15.7502 4.25117 15.7502 3.96238C15.7502 3.67358 15.5302 3.43939 15.2606 3.43939C14.991 3.43939 14.7723 3.67358 14.7723 3.96238C14.7723 4.25117 14.9909 4.48536 15.2605 4.48536Z" fill="white"/>
<path d="M17.4515 6.75056H21.8751C22.1447 6.75056 22.3634 6.51636 22.3634 6.22757C22.3634 5.93878 22.1447 5.70459 21.8751 5.70459H17.4515C17.1819 5.70459 16.9633 5.93878 16.9633 6.22757C16.9633 6.51636 17.1819 6.75056 17.4515 6.75056Z" fill="white"/>
<path d="M15.2592 6.75056H15.2606C15.5302 6.75056 15.7482 6.51636 15.7482 6.22757C15.7482 5.93878 15.5288 5.70459 15.2592 5.70459C14.9895 5.70459 14.7709 5.93878 14.7709 6.22757C14.7709 6.51636 14.9895 6.75056 15.2592 6.75056Z" fill="white"/>
<path d="M17.4488 9.01581H21.8737C22.1433 9.01581 22.3619 8.78162 22.3619 8.49283C22.3619 8.20404 22.1433 7.96985 21.8737 7.96985H17.4488C17.1791 7.96985 16.9605 8.20404 16.9605 8.49283C16.9605 8.78162 17.1791 9.01581 17.4488 9.01581Z" fill="white"/>
<path d="M15.2564 9.01581H15.2592C15.5288 9.01581 15.7461 8.78162 15.7461 8.49283C15.7461 8.20404 15.5261 7.96985 15.2564 7.96985C14.9868 7.96985 14.7682 8.20404 14.7682 8.49283C14.7682 8.78162 14.9868 9.01581 15.2564 9.01581Z" fill="white"/>
<path d="M12.4993 16.2495C12.2296 16.2495 12.011 16.4837 12.011 16.7725C12.011 17.0613 12.2296 17.2955 12.4993 17.2955H12.5021C12.7717 17.2955 12.989 17.0613 12.989 16.7725C12.989 16.4837 12.7689 16.2495 12.4993 16.2495Z" fill="white"/>
</svg>
