<svg width="25" height="25" viewBox="0 0 25 25" fill="none" xmlns="http://www.w3.org/2000/svg">
<path d="M17.8711 6.64062H14.7035C14.4338 6.64062 14.2152 6.85923 14.2152 7.12891C14.2152 7.39858 14.4338 7.61719 14.7035 7.61719H17.3828V17.3828H7.61719V7.61719H10.3089C10.5786 7.61719 10.7972 7.39858 10.7972 7.12891C10.7972 6.85923 10.5786 6.64062 10.3089 6.64062H7.12891C6.85928 6.64062 6.64062 6.85923 6.64062 7.12891V17.8711C6.64062 18.1407 6.85928 18.3594 7.12891 18.3594H17.8711C18.1407 18.3594 18.3594 18.1407 18.3594 17.8711V7.12891C18.3594 6.85923 18.1407 6.64062 17.8711 6.64062Z" fill="white"/>
<path d="M8.78906 9.27734V11.4258C8.78906 11.6955 9.00771 11.9141 9.27734 11.9141H11.4258C11.6954 11.9141 11.9141 11.6955 11.9141 11.4258V9.27734C11.9141 9.00767 11.6954 8.78906 11.4258 8.78906H9.27734C9.00771 8.78906 8.78906 9.00767 8.78906 9.27734ZM9.76562 9.76562H10.9375V10.9375H9.76562V9.76562Z" fill="white"/>
<path d="M13.5742 9.76562H15.7227C15.9923 9.76562 16.2109 9.54702 16.2109 9.27734C16.2109 9.00767 15.9923 8.78906 15.7227 8.78906H13.5742C13.3046 8.78906 13.0859 9.00767 13.0859 9.27734C13.0859 9.54702 13.3046 9.76562 13.5742 9.76562Z" fill="white"/>
<path d="M13.5742 11.9141H15.7227C15.9923 11.9141 16.2109 11.6955 16.2109 11.4258C16.2109 11.1561 15.9923 10.9375 15.7227 10.9375H13.5742C13.3046 10.9375 13.0859 11.1561 13.0859 11.4258C13.0859 11.6955 13.3046 11.9141 13.5742 11.9141Z" fill="white"/>
<path d="M13.5742 16.2109H15.7227C15.9923 16.2109 16.2109 15.9923 16.2109 15.7227V13.5742C16.2109 13.3046 15.9923 13.0859 15.7227 13.0859C15.453 13.0859 15.2344 13.3046 15.2344 13.5742V15.2344H13.5742C13.3046 15.2344 13.0859 15.453 13.0859 15.7227C13.0859 15.9923 13.3046 16.2109 13.5742 16.2109Z" fill="white"/>
<path d="M13.5742 14.0625C13.7026 14.0625 13.8286 14.0103 13.9194 13.9194C14.0103 13.8286 14.0625 13.7026 14.0625 13.5742C14.0625 13.4458 14.0103 13.3198 13.9194 13.229C13.8286 13.1382 13.7026 13.0859 13.5742 13.0859C13.4458 13.0859 13.3198 13.1381 13.229 13.229C13.1382 13.3199 13.0859 13.4458 13.0859 13.5742C13.0859 13.7026 13.1381 13.8286 13.229 13.9194C13.3198 14.0103 13.4458 14.0625 13.5742 14.0625Z" fill="white"/>
<path d="M11.4258 15.2344H9.27734C9.00771 15.2344 8.78906 15.453 8.78906 15.7227C8.78906 15.9923 9.00771 16.2109 9.27734 16.2109H11.4258C11.6954 16.2109 11.9141 15.9923 11.9141 15.7227C11.9141 15.453 11.6954 15.2344 11.4258 15.2344Z" fill="white"/>
<path d="M11.4258 13.0859H9.27734C9.00771 13.0859 8.78906 13.3046 8.78906 13.5742C8.78906 13.8438 9.00771 14.0625 9.27734 14.0625H11.4258C11.6954 14.0625 11.9141 13.8438 11.9141 13.5742C11.9141 13.3046 11.6954 13.0859 11.4258 13.0859Z" fill="white"/>
<path d="M24.5117 12.9883C24.7813 12.9883 25 12.7696 25 12.5C25 12.2303 24.7813 12.0117 24.5117 12.0117H20.7031V10.2539H22.5586C22.8282 10.2539 23.0469 10.0353 23.0469 9.76562C23.0469 9.49595 22.8282 9.27734 22.5586 9.27734H20.7031V7.51953H24.5117C24.7813 7.51953 25 7.30093 25 7.03125C25 6.76157 24.7813 6.54297 24.5117 6.54297H20.674C20.5037 5.40117 19.5988 4.49629 18.457 4.32598V0.488281C18.457 0.218604 18.2384 0 17.9688 0C17.6991 0 17.4805 0.218604 17.4805 0.488281V4.29688H15.7227V2.44141C15.7227 2.17173 15.504 1.95312 15.2344 1.95312C14.9647 1.95312 14.7461 2.17173 14.7461 2.44141V4.29688H12.9883V0.488281C12.9883 0.218604 12.7696 0 12.5 0C12.2304 0 12.0117 0.218604 12.0117 0.488281V4.29688H10.2539V2.44141C10.2539 2.17173 10.0353 1.95312 9.76562 1.95312C9.496 1.95312 9.27734 2.17173 9.27734 2.44141V4.29688H7.51953V0.488281C7.51953 0.218604 7.30088 0 7.03125 0C6.76162 0 6.54297 0.218604 6.54297 0.488281V4.32598C5.40117 4.49629 4.49629 5.40117 4.32598 6.54297H0.488281C0.218652 6.54297 0 6.76157 0 7.03125C0 7.30093 0.218652 7.51953 0.488281 7.51953H4.29688V9.27734H2.44141C2.17178 9.27734 1.95312 9.49595 1.95312 9.76562C1.95312 10.0353 2.17178 10.2539 2.44141 10.2539H4.29688V12.0117H0.488281C0.218652 12.0117 0 12.2303 0 12.5C0 12.7696 0.218652 12.9883 0.488281 12.9883H4.29688V14.7461H2.44141C2.17178 14.7461 1.95312 14.9647 1.95312 15.2344C1.95312 15.504 2.17178 15.7227 2.44141 15.7227H4.29688V17.4805H0.488281C0.218652 17.4805 0 17.6991 0 17.9688C0 18.2384 0.218652 18.457 0.488281 18.457H4.32598C4.49629 19.5988 5.40117 20.5037 6.54297 20.674V24.5117C6.54297 24.7813 6.76162 25 7.03125 25C7.30088 25 7.51953 24.7813 7.51953 24.5117V20.7031H9.27734V22.5586C9.27734 22.8282 9.496 23.0469 9.76562 23.0469C10.0353 23.0469 10.2539 22.8282 10.2539 22.5586V20.7031H12.0117V24.5117C12.0117 24.7813 12.2304 25 12.5 25C12.7696 25 12.9883 24.7813 12.9883 24.5117V20.7031H14.7461V22.5586C14.7461 22.8282 14.9647 23.0469 15.2344 23.0469C15.504 23.0469 15.7227 22.8282 15.7227 22.5586V20.7031H17.4805V24.5117C17.4805 24.7813 17.6991 25 17.9688 25C18.2384 25 18.457 24.7813 18.457 24.5117V20.674C19.5988 20.5037 20.5037 19.5988 20.674 18.457H24.5117C24.7813 18.457 25 18.2384 25 17.9688C25 17.6991 24.7813 17.4805 24.5117 17.4805H20.7031V15.7227H22.5586C22.8282 15.7227 23.0469 15.504 23.0469 15.2344C23.0469 14.9647 22.8282 14.7461 22.5586 14.7461H20.7031V12.9883H24.5117ZM19.7266 18.0664C19.7266 18.9818 18.9818 19.7266 18.0664 19.7266H6.93359C6.01816 19.7266 5.27344 18.9818 5.27344 18.0664V6.93359C5.27344 6.01816 6.01816 5.27344 6.93359 5.27344H18.0664C18.9818 5.27344 19.7266 6.01816 19.7266 6.93359V18.0664Z" fill="white"/>
<path d="M12.5063 7.61719C12.6348 7.61719 12.7607 7.56494 12.8516 7.47412C12.9423 7.3833 12.9946 7.25732 12.9946 7.12891C12.9946 7.00049 12.9424 6.87451 12.8516 6.78369C12.7607 6.69287 12.6348 6.64062 12.5063 6.64062C12.3774 6.64062 12.252 6.69287 12.1611 6.78369C12.0698 6.87451 12.0181 7.00049 12.0181 7.12891C12.0181 7.25732 12.0698 7.3833 12.1611 7.47412C12.252 7.56494 12.3774 7.61719 12.5063 7.61719Z" fill="white"/>
</svg>
