<svg width="30" height="30" viewBox="0 0 30 30" fill="none" xmlns="http://www.w3.org/2000/svg">
<rect x="3" y="3" width="24" height="24" fill="#FFA73E"/>
<path d="M3.70682 2.76811C3.38479 2.76811 3.12372 2.50704 3.12372 2.18501V0.583104C3.12372 0.261075 3.38479 0 3.70682 0C4.02885 0 4.28993 0.261075 4.28993 0.583104V2.18501C4.28993 2.50704 4.02885 2.76811 3.70682 2.76811Z" fill="white"/>
<path d="M6.21634 2.76811C5.89431 2.76811 5.63324 2.50704 5.63324 2.18501V0.583104C5.63324 0.261075 5.89431 0 6.21634 0C6.53837 0 6.79945 0.261075 6.79945 0.583104V2.18501C6.79945 2.50704 6.53845 2.76811 6.21634 2.76811Z" fill="white"/>
<path d="M8.72596 2.76811C8.40393 2.76811 8.14285 2.50704 8.14285 2.18501V0.583104C8.14285 0.261075 8.40393 0 8.72596 0C9.04799 0 9.30906 0.261075 9.30906 0.583104V2.18501C9.30906 2.50704 9.04799 2.76811 8.72596 2.76811Z" fill="white"/>
<path d="M11.2357 2.76811C10.9136 2.76811 10.6526 2.50704 10.6526 2.18501V0.583104C10.6526 0.261075 10.9136 0 11.2357 0C11.5577 0 11.8188 0.261075 11.8188 0.583104V2.18501C11.8188 2.50704 11.5577 2.76811 11.2357 2.76811Z" fill="white"/>
<path d="M13.7452 2.76811C13.4231 2.76811 13.162 2.50704 13.162 2.18501V0.583104C13.162 0.261075 13.4231 0 13.7452 0C14.0672 0 14.3283 0.261075 14.3283 0.583104V2.18501C14.3283 2.50704 14.0672 2.76811 13.7452 2.76811Z" fill="white"/>
<path d="M16.2548 2.76811C15.9328 2.76811 15.6717 2.50704 15.6717 2.18501V0.583104C15.6717 0.261075 15.9328 0 16.2548 0C16.5769 0 16.8379 0.261075 16.8379 0.583104V2.18501C16.8379 2.50704 16.5769 2.76811 16.2548 2.76811Z" fill="white"/>
<path d="M18.7644 2.76811C18.4423 2.76811 18.1813 2.50704 18.1813 2.18501V0.583104C18.1813 0.261075 18.4423 0 18.7644 0C19.0864 0 19.3475 0.261075 19.3475 0.583104V2.18501C19.3475 2.50704 19.0865 2.76811 18.7644 2.76811Z" fill="white"/>
<path d="M21.2741 2.76811C20.952 2.76811 20.6909 2.50704 20.6909 2.18501V0.583104C20.6909 0.261075 20.952 0 21.2741 0C21.5961 0 21.8572 0.261075 21.8572 0.583104V2.18501C21.8572 2.50704 21.5961 2.76811 21.2741 2.76811Z" fill="white"/>
<path d="M23.7836 2.76811C23.4616 2.76811 23.2005 2.50704 23.2005 2.18501V0.583104C23.2005 0.261075 23.4616 0 23.7836 0C24.1057 0 24.3667 0.261075 24.3667 0.583104V2.18501C24.3667 2.50704 24.1057 2.76811 23.7836 2.76811Z" fill="white"/>
<path d="M26.2931 2.76811C25.9711 2.76811 25.71 2.50704 25.71 2.18501V0.583104C25.71 0.261075 25.9711 0 26.2931 0C26.6152 0 26.8762 0.261075 26.8762 0.583104V2.18501C26.8762 2.50704 26.6152 2.76811 26.2931 2.76811Z" fill="white"/>
<path d="M3.70682 30C3.38479 30 3.12372 29.739 3.12372 29.4169V27.815C3.12372 27.493 3.38479 27.2319 3.70682 27.2319C4.02885 27.2319 4.28993 27.493 4.28993 27.815V29.4169C4.28993 29.739 4.02885 30 3.70682 30Z" fill="white"/>
<path d="M6.21634 30C5.89431 30 5.63324 29.739 5.63324 29.4169V27.815C5.63324 27.493 5.89431 27.2319 6.21634 27.2319C6.53837 27.2319 6.79945 27.493 6.79945 27.815V29.4169C6.79945 29.739 6.53845 30 6.21634 30Z" fill="white"/>
<path d="M8.72593 30C8.4039 30 8.14282 29.739 8.14282 29.4169V27.815C8.14282 27.493 8.4039 27.2319 8.72593 27.2319C9.04795 27.2319 9.30903 27.493 9.30903 27.815V29.4169C9.30903 29.739 9.04795 30 8.72593 30Z" fill="white"/>
<path d="M11.2357 30C10.9137 30 10.6526 29.739 10.6526 29.4169V27.815C10.6526 27.493 10.9137 27.2319 11.2357 27.2319C11.5577 27.2319 11.8188 27.493 11.8188 27.815V29.4169C11.8188 29.739 11.5577 30 11.2357 30Z" fill="white"/>
<path d="M13.7452 30C13.4231 30 13.162 29.739 13.162 29.4169V27.815C13.162 27.493 13.4231 27.2319 13.7452 27.2319C14.0672 27.2319 14.3283 27.493 14.3283 27.815V29.4169C14.3283 29.739 14.0672 30 13.7452 30Z" fill="white"/>
<path d="M16.2549 30C15.9328 30 15.6718 29.739 15.6718 29.4169V27.815C15.6718 27.493 15.9328 27.2319 16.2549 27.2319C16.5769 27.2319 16.838 27.493 16.838 27.815V29.4169C16.838 29.739 16.5769 30 16.2549 30Z" fill="white"/>
<path d="M18.7644 30C18.4423 30 18.1813 29.739 18.1813 29.4169V27.815C18.1813 27.493 18.4423 27.2319 18.7644 27.2319C19.0864 27.2319 19.3475 27.493 19.3475 27.815V29.4169C19.3475 29.739 19.0865 30 18.7644 30Z" fill="white"/>
<path d="M21.274 30C20.952 30 20.6909 29.739 20.6909 29.4169V27.815C20.6909 27.493 20.952 27.2319 21.274 27.2319C21.5961 27.2319 21.8571 27.493 21.8571 27.815V29.4169C21.8571 29.739 21.5961 30 21.274 30Z" fill="white"/>
<path d="M23.7837 30C23.4616 30 23.2006 29.739 23.2006 29.4169V27.815C23.2006 27.493 23.4616 27.2319 23.7837 27.2319C24.1057 27.2319 24.3668 27.493 24.3668 27.815V29.4169C24.3668 29.739 24.1057 30 23.7837 30Z" fill="white"/>
<path d="M26.2931 30C25.9711 30 25.71 29.739 25.71 29.4169V27.815C25.71 27.493 25.9711 27.2319 26.2931 27.2319C26.6152 27.2319 26.8762 27.493 26.8762 27.815V29.4169C26.8762 29.739 26.6152 30 26.2931 30Z" fill="white"/>
<path d="M2.18501 4.28993H0.583104C0.261075 4.28993 0 4.02885 0 3.70682C0 3.38479 0.261075 3.12372 0.583104 3.12372H2.18501C2.50704 3.12372 2.76811 3.38479 2.76811 3.70682C2.76811 4.02885 2.50704 4.28993 2.18501 4.28993Z" fill="white"/>
<path d="M2.18501 6.79945H0.583104C0.261075 6.79945 0 6.53837 0 6.21634C0 5.89431 0.261075 5.63324 0.583104 5.63324H2.18501C2.50704 5.63324 2.76811 5.89431 2.76811 6.21634C2.76811 6.53837 2.50704 6.79945 2.18501 6.79945Z" fill="white"/>
<path d="M2.18501 9.30906H0.583104C0.261075 9.30906 0 9.04799 0 8.72596C0 8.40393 0.261075 8.14285 0.583104 8.14285H2.18501C2.50704 8.14285 2.76811 8.40393 2.76811 8.72596C2.76811 9.04799 2.50704 9.30906 2.18501 9.30906Z" fill="white"/>
<path d="M2.18501 11.8187H0.583104C0.261075 11.8187 0 11.5577 0 11.2356C0 10.9136 0.261075 10.6525 0.583104 10.6525H2.18501C2.50704 10.6525 2.76811 10.9136 2.76811 11.2356C2.76811 11.5577 2.50704 11.8187 2.18501 11.8187Z" fill="white"/>
<path d="M2.18501 14.3283H0.583104C0.261075 14.3283 0 14.0672 0 13.7452C0 13.4231 0.261075 13.162 0.583104 13.162H2.18501C2.50704 13.162 2.76811 13.4231 2.76811 13.7452C2.76811 14.0672 2.50704 14.3283 2.18501 14.3283Z" fill="white"/>
<path d="M2.18501 16.8379H0.583104C0.261075 16.8379 0 16.5769 0 16.2548C0 15.9328 0.261075 15.6717 0.583104 15.6717H2.18501C2.50704 15.6717 2.76811 15.9328 2.76811 16.2548C2.76811 16.5769 2.50704 16.8379 2.18501 16.8379Z" fill="white"/>
<path d="M2.18501 19.3475H0.583104C0.261075 19.3475 0 19.0864 0 18.7643C0 18.4423 0.261075 18.1812 0.583104 18.1812H2.18501C2.50704 18.1812 2.76811 18.4423 2.76811 18.7643C2.76811 19.0864 2.50704 19.3475 2.18501 19.3475Z" fill="white"/>
<path d="M2.18501 21.8571H0.583104C0.261075 21.8571 0 21.5961 0 21.274C0 20.952 0.261075 20.6909 0.583104 20.6909H2.18501C2.50704 20.6909 2.76811 20.952 2.76811 21.274C2.76811 21.5961 2.50704 21.8571 2.18501 21.8571Z" fill="white"/>
<path d="M2.18501 24.3667H0.583104C0.261075 24.3667 0 24.1057 0 23.7836C0 23.4616 0.261075 23.2005 0.583104 23.2005H2.18501C2.50704 23.2005 2.76811 23.4616 2.76811 23.7836C2.76811 24.1057 2.50704 24.3667 2.18501 24.3667Z" fill="white"/>
<path d="M2.18501 26.8763H0.583104C0.261075 26.8763 0 26.6152 0 26.2932C0 25.9711 0.261075 25.7101 0.583104 25.7101H2.18501C2.50704 25.7101 2.76811 25.9711 2.76811 26.2932C2.76811 26.6152 2.50704 26.8763 2.18501 26.8763Z" fill="white"/>
<path d="M29.4169 4.28993H27.815C27.4929 4.28993 27.2319 4.02885 27.2319 3.70682C27.2319 3.38479 27.4929 3.12372 27.815 3.12372H29.4169C29.7389 3.12372 30 3.38479 30 3.70682C30 4.02885 29.7389 4.28993 29.4169 4.28993Z" fill="white"/>
<path d="M29.4169 6.79945H27.815C27.4929 6.79945 27.2319 6.53837 27.2319 6.21634C27.2319 5.89431 27.4929 5.63324 27.815 5.63324H29.4169C29.7389 5.63324 30 5.89431 30 6.21634C30 6.53837 29.7389 6.79945 29.4169 6.79945Z" fill="white"/>
<path d="M29.4169 9.30906H27.815C27.4929 9.30906 27.2319 9.04799 27.2319 8.72596C27.2319 8.40393 27.4929 8.14285 27.815 8.14285H29.4169C29.7389 8.14285 30 8.40393 30 8.72596C30 9.04799 29.7389 9.30906 29.4169 9.30906Z" fill="white"/>
<path d="M29.4169 11.8187H27.815C27.4929 11.8187 27.2319 11.5577 27.2319 11.2356C27.2319 10.9136 27.4929 10.6525 27.815 10.6525H29.4169C29.7389 10.6525 30 10.9136 30 11.2356C30 11.5577 29.7389 11.8187 29.4169 11.8187Z" fill="white"/>
<path d="M29.4169 14.3283H27.815C27.4929 14.3283 27.2319 14.0672 27.2319 13.7452C27.2319 13.4231 27.4929 13.162 27.815 13.162H29.4169C29.7389 13.162 30 13.4231 30 13.7452C30 14.0672 29.7389 14.3283 29.4169 14.3283Z" fill="white"/>
<path d="M29.4169 16.8379H27.815C27.4929 16.8379 27.2319 16.5769 27.2319 16.2548C27.2319 15.9328 27.4929 15.6717 27.815 15.6717H29.4169C29.7389 15.6717 30 15.9328 30 16.2548C30 16.5769 29.7389 16.8379 29.4169 16.8379Z" fill="white"/>
<path d="M29.4169 19.3475H27.815C27.4929 19.3475 27.2319 19.0864 27.2319 18.7643C27.2319 18.4423 27.4929 18.1812 27.815 18.1812H29.4169C29.7389 18.1812 30 18.4423 30 18.7643C30 19.0864 29.7389 19.3475 29.4169 19.3475Z" fill="white"/>
<path d="M29.4169 21.8571H27.815C27.4929 21.8571 27.2319 21.5961 27.2319 21.274C27.2319 20.952 27.4929 20.6909 27.815 20.6909H29.4169C29.7389 20.6909 30 20.952 30 21.274C30 21.5961 29.7389 21.8571 29.4169 21.8571Z" fill="white"/>
<path d="M29.4169 24.3667H27.815C27.4929 24.3667 27.2319 24.1057 27.2319 23.7836C27.2319 23.4616 27.4929 23.2005 27.815 23.2005H29.4169C29.7389 23.2005 30 23.4616 30 23.7836C30 24.1057 29.7389 24.3667 29.4169 24.3667Z" fill="white"/>
<path d="M29.4169 26.8763H27.815C27.4929 26.8763 27.2319 26.6152 27.2319 26.2932C27.2319 25.9711 27.4929 25.7101 27.815 25.7101H29.4169C29.7389 25.7101 30 25.9711 30 26.2932C30 26.6152 29.7389 26.8763 29.4169 26.8763Z" fill="white"/>
<path d="M18.06 20.074H11.944L10.932 23H7.69798L13.22 7.622H16.806L22.328 23H19.072L18.06 20.074ZM17.224 17.61L15.002 11.186L12.78 17.61H17.224Z" fill="white"/>
</svg>
