<svg width="101" height="59" viewBox="0 0 101 59" fill="none" xmlns="http://www.w3.org/2000/svg">
<path d="M0.318042 20.1933C0.385601 14.6708 4.91719 10.2488 10.4396 10.3164L90.2669 11.2929C95.7893 11.3605 100.211 15.8921 100.144 21.4145L99.9481 37.4133C99.8805 42.9357 95.349 47.3578 89.8265 47.2902L9.99925 46.3137C4.47681 46.2461 0.0547617 41.7145 0.122321 36.1921L0.318042 20.1933Z" fill="#FFA73E"/>
<path d="M26.6202 21.667C26.3602 20.575 25.9052 19.756 25.2552 19.21C24.6312 18.664 23.7212 18.391 22.5252 18.391C20.7312 18.391 19.4052 19.119 18.5472 20.575C17.7152 22.005 17.2862 24.345 17.2602 27.595C17.8842 26.555 18.7942 25.749 19.9902 25.177C21.1862 24.579 22.4862 24.28 23.8902 24.28C25.5802 24.28 27.0752 24.644 28.3752 25.372C29.6752 26.1 30.6892 27.166 31.4172 28.57C32.1452 29.948 32.5092 31.612 32.5092 33.562C32.5092 35.408 32.1322 37.059 31.3782 38.515C30.6502 39.945 29.5712 41.063 28.1412 41.869C26.7112 42.675 25.0082 43.078 23.0322 43.078C20.3282 43.078 18.1962 42.48 16.6362 41.284C15.1022 40.088 14.0232 38.424 13.3992 36.292C12.8012 34.134 12.5022 31.482 12.5022 28.336C12.5022 23.578 13.3212 19.99 14.9592 17.572C16.5972 15.128 19.1842 13.906 22.7202 13.906C25.4502 13.906 27.5692 14.647 29.0772 16.129C30.5852 17.611 31.4562 19.457 31.6902 21.667H26.6202ZM22.6422 28.765C21.2642 28.765 20.1072 29.168 19.1712 29.974C18.2352 30.78 17.7672 31.95 17.7672 33.484C17.7672 35.018 18.1962 36.227 19.0542 37.111C19.9382 37.995 21.1732 38.437 22.7592 38.437C24.1632 38.437 25.2682 38.008 26.0742 37.15C26.9062 36.292 27.3222 35.135 27.3222 33.679C27.3222 32.171 26.9192 30.975 26.1132 30.091C25.3332 29.207 24.1762 28.765 22.6422 28.765Z" fill="white"/>
<path d="M41.439 36.9876L49.497 40.4664L49.4826 41.6463L46.8165 40.4936L41.3703 42.5972L41.3859 41.3273L45.6045 39.8288L41.4245 38.1675L41.439 36.9876ZM44.1311 31.1098C44.3377 31.1123 44.5242 31.1279 44.6905 31.1566L44.639 35.3663C45.0794 35.3384 45.4347 35.1794 45.7049 34.8893C45.9752 34.5993 46.1129 34.2409 46.1181 33.8143C46.1256 33.201 45.8743 32.7645 45.3641 32.505L45.3791 31.275C45.8837 31.4479 46.2966 31.7563 46.6179 32.2003C46.9326 32.6375 47.086 33.1794 47.0781 33.826C47.0716 34.3526 46.9492 34.8245 46.7107 35.2416C46.4657 35.652 46.1284 35.9746 45.6988 36.2093C45.2626 36.4373 44.7612 36.5479 44.1946 36.541C43.628 36.534 43.1328 36.4146 42.7089 36.1828C42.2784 35.9441 41.9491 35.6167 41.7208 35.2006C41.4927 34.7778 41.3819 34.2964 41.3885 33.7564C41.3948 33.2365 41.5138 32.7745 41.7455 32.3707C41.9771 31.9668 42.3009 31.6541 42.717 31.4325C43.1264 31.2108 43.5978 31.1032 44.1311 31.1098ZM43.7565 32.2953C43.3365 32.2968 42.998 32.4427 42.7411 32.7329C42.4842 33.0231 42.3531 33.3849 42.3478 33.8182C42.343 34.2115 42.4655 34.5497 42.7154 34.8327C42.9586 35.1157 43.2932 35.2865 43.7192 35.345L43.7565 32.2953ZM44.2501 30.3693C43.6968 30.3625 43.2083 30.2432 42.7844 30.0113C42.3606 29.7728 42.0345 29.4555 41.806 29.0593C41.5709 28.6564 41.4563 28.215 41.4621 27.735C41.4674 27.3017 41.5587 26.9261 41.7359 26.6083C41.9066 26.2837 42.1198 26.0262 42.3754 25.836L41.5755 25.8262L41.5896 24.6763L47.0992 24.7437L47.0851 25.8936L46.2651 25.8836C46.5228 26.0801 46.7362 26.3461 46.9054 26.6815C47.0747 27.0169 47.1567 27.398 47.1515 27.8246C47.1457 28.2979 47.0204 28.7297 46.7756 29.1201C46.5241 29.5104 46.1803 29.8195 45.7442 30.0475C45.3014 30.2688 44.8034 30.3761 44.2501 30.3693ZM44.3253 25.8599C43.9453 25.8552 43.6144 25.9312 43.3324 26.0877C43.0506 26.2376 42.8348 26.4384 42.685 26.6899C42.5353 26.9414 42.4586 27.2138 42.455 27.5071C42.4514 27.8004 42.5214 28.0746 42.665 28.3298C42.8018 28.5848 43.0093 28.794 43.2873 28.9574C43.5588 29.1141 43.8845 29.1947 44.2644 29.1994C44.6444 29.204 44.9787 29.1314 45.2672 28.9816C45.5558 28.8252 45.7783 28.6212 45.9347 28.3698C46.0845 28.1116 46.1612 27.8391 46.1647 27.5525C46.1683 27.2592 46.0983 26.985 45.9548 26.7299C45.8112 26.4748 45.6004 26.2688 45.3223 26.1121C45.0376 25.9486 44.7053 25.8645 44.3253 25.8599ZM42.4218 22.049C42.1438 21.8789 41.9299 21.6562 41.7799 21.3811C41.6233 21.0991 41.5474 20.7682 41.552 20.3882L42.7319 20.4026L42.7284 20.6926C42.7229 21.1392 42.8321 21.4806 43.0559 21.7167C43.2798 21.9461 43.6717 22.0643 44.2316 22.0711L47.1314 22.1066L47.1175 23.2465L41.6079 23.1791L41.6218 22.0392L42.4218 22.049ZM47.2789 17.4101C47.2736 17.8434 47.1921 18.2325 47.0346 18.5772C46.8704 18.9153 46.6538 19.1826 46.3847 19.3793C46.109 19.576 45.8043 19.6789 45.4709 19.6882L45.4853 18.5083C45.7189 18.4911 45.9169 18.3836 46.0793 18.1855C46.2351 17.9807 46.315 17.725 46.3187 17.4184C46.3226 17.0984 46.2656 16.851 46.1478 16.6762C46.0233 16.4947 45.8644 16.4028 45.6711 16.4004C45.4645 16.3979 45.3099 16.496 45.2075 16.6947C45.1051 16.8868 44.9913 17.1955 44.8661 17.6206C44.7477 18.0326 44.6336 18.3679 44.5238 18.6265C44.4139 18.8852 44.2479 19.1099 44.0255 19.3005C43.8032 19.4844 43.5121 19.5742 43.1521 19.5698C42.8588 19.5662 42.5932 19.4763 42.3554 19.3001C42.1109 19.1237 41.9206 18.8747 41.7845 18.553C41.6485 18.2247 41.5831 17.8505 41.5882 17.4305C41.5959 16.8039 41.762 16.3026 42.0866 15.9265C42.4047 15.5437 42.8372 15.3423 43.3841 15.3223L43.3702 16.4623C43.1233 16.4792 42.9254 16.5768 42.7766 16.755C42.6277 16.9332 42.5514 17.1756 42.5476 17.4823C42.544 17.7822 42.5978 18.0129 42.7092 18.1743C42.8206 18.3357 42.9696 18.4175 43.1562 18.4198C43.3029 18.4216 43.4268 18.3698 43.5281 18.2643C43.6294 18.1589 43.711 18.0299 43.7729 17.8773C43.8281 17.7246 43.9009 17.4988 43.9912 17.1999C44.1028 16.8012 44.2167 16.4759 44.3332 16.224C44.443 15.9653 44.6057 15.744 44.8213 15.5599C45.0369 15.3759 45.3214 15.2827 45.6748 15.2804C45.9881 15.2842 46.267 15.3743 46.5116 15.5506C46.7561 15.727 46.9464 15.976 47.0825 16.2977C47.2186 16.6127 47.2841 16.9835 47.2789 17.4101Z" fill="#1961A7"/>
<path d="M60.7133 16.6547L60.406 41.7808L55.3663 41.7191L55.6737 16.593L60.7133 16.6547Z" fill="white"/>
<path d="M90.1269 42.2935L85.0872 42.2319L73.887 24.8496L73.6761 42.0923L68.6365 42.0306L68.9443 16.8685L73.9839 16.9302L85.1837 34.3485L85.395 17.0698L90.4347 17.1314L90.1269 42.2935Z" fill="white"/>
</svg>
